<?xml version="1.0" encoding="UTF-8"?>
<svg id="Ebene_1" data-name="Ebene 1" xmlns="http://www.w3.org/2000/svg" viewBox="0 0 531 75.28">
  <defs>
    <style>
      .cls-1 {
        fill: blue;
      }
    </style>
  </defs>
  <path class="cls-1" d="M0,69.65V.69h20.58l19.14,25.83,10.09,15.85h1.34l-.93-15.03V.69h19.35v68.95h-20.58l-20.38-26.55-8.75-13.58h-1.34l.82,13.17v26.96s-19.35,0-19.35,0ZM77.7,69.65V.69h61.23v17.39s-41.89,0-41.89,0v8.23h40.34v17.29h-40.34v8.65h41.89v17.39h-61.23ZM145.61,40.73V.69s19.35,0,19.35,0v38.49c0,9.78,2.78,12.76,15.85,12.76s15.85-2.99,15.85-12.76V.69h19.35v40.04c0,18.32-11.12,29.95-35.2,29.95-24.08,0-35.2-11.63-35.2-29.95ZM307.73,69.65V.69h43.84c14.92,0,22.33,5.87,22.33,16.67,0,8.85-4.63,15.13-17.19,15.64v1.03c13.79.52,20.38,6.9,20.38,16.47,0,11.63-6.69,19.14-23.16,19.14h-46.21ZM326.97,26.83h22.54c3.91,0,5.04-1.13,5.04-4.32,0-3.19-1.54-4.43-5.56-4.43h-22.02v8.75ZM326.97,52.26h24.49c4.63,0,6.07-.93,6.07-4.84s-1.34-4.73-6.07-4.73h-24.49v9.57ZM375.6,69.65L405.34.69h27.68l29.85,68.95h-22.23l-5.25-12.76h-32.73l-5.35,12.76h-21.71ZM409.97,39.49h18.32l-4.01-9.67-4.53-11.63h-1.34s-4.43,11.63-4.43,11.63l-4.01,9.67ZM460.61,40.73V.69s19.35,0,19.35,0v38.49c0,9.78,2.78,12.76,15.85,12.76s15.85-2.99,15.85-12.76V.69h19.35v40.04c0,18.32-11.12,29.95-35.2,29.95s-35.2-11.63-35.2-29.95ZM247.91,40.54l-4.6-2.65-7.09,13.09c-.51.87-.96,1.68-1.35,2.43-.36.65-.7,1.31-1.03,1.98-.32.67-.54,1.18-.65,1.54-.11.47-.19.81-.24,1.03s-.08.58-.08,1.08l-8.76-15.36c-.47-.83-.81-1.54-1.03-2.14-.22-.6-.35-1.11-.41-1.54s-.03-.83.08-1.19c.11-.36.27-.74.49-1.14l4.98-8.55-4.11-2.16,16.12-.87,7.68,14.44ZM260.41,5.81l-12.17,22.02-14.72-8.66,8.49-14.72c.25-.43.61-.9,1.08-1.41.47-.5,1.02-.97,1.65-1.41.63-.43,1.32-.8,2.06-1.11.74-.31,1.51-.48,2.3-.51,1.26-.07,2.41.05,3.44.35,1.03.31,1.97.7,2.84,1.19.87.49,1.66,1.05,2.38,1.68.72.63,1.39,1.25,2,1.87l.65.7ZM262.47,69.38h-18.94c-.51,0-1.06-.04-1.68-.13-.61-.09-1.23-.25-1.84-.49-.61-.23-1.22-.58-1.81-1.03s-1.11-1.02-1.54-1.7c-.69-1.05-1.13-2.09-1.33-3.14-.2-1.05-.23-2.06-.08-3.06.14-.99.41-1.94.78-2.84.38-.9.78-1.7,1.22-2.38l.38-.76h24.83v15.53ZM290.71,7.97l-8.28,14.39-16.61-.76,5.14-2.54-7.41-13.36c-.36-.54-.74-1.06-1.14-1.57-.32-.43-.68-.87-1.05-1.33-.38-.45-.73-.82-1.05-1.11-.4-.4-.81-.71-1.24-.95-.43-.23-.85-.46-1.24-.68l18.12.05c.94,0,1.71.05,2.33.16.61.11,1.11.27,1.49.49.38.22.68.47.92.76.23.29.46.63.68,1.03l4.54,8.01,4.81-2.6ZM297.63,50.77l-10.01,15.26c-.51.79-1.04,1.42-1.6,1.87-.56.45-1.12.78-1.68,1-.56.22-1.1.35-1.62.41-.52.05-1,.08-1.43.08h-8.06s0,5.9,0,5.9l-8.66-13.8,8.6-13.69.05,6.06h13.04c.11,0,.51-.03,1.22-.08.7-.05,1.49-.13,2.35-.22s1.72-.19,2.57-.3c.85-.11,1.49-.22,1.92-.32.43-.18.77-.34,1-.49.23-.14.59-.32,1.05-.54l1.24-1.14ZM300.34,43.9c-.54,1.12-1.26,2.11-2.16,2.98-.9.87-1.85,1.6-2.84,2.22-.99.61-2,1.07-3.03,1.38-1.03.31-1.96.44-2.79.41l-.81.11-12.28-22.18,15.09-8.76,8.49,14.77c.25.43.49,1,.7,1.7.22.7.36,1.48.43,2.33.07.85.05,1.71-.05,2.6s-.36,1.7-.76,2.46Z"/>
</svg>